<svg width="100" height="100" viewBox="0 0 100 100" fill="none" xmlns="http://www.w3.org/2000/svg">
<g id="Group 8">
<g id="Group">
<path id="Vector" d="M99.9213 93.4595C97.2888 77.6769 85.3362 65.7656 70.9811 65.7656C56.6261 65.7656 44.6735 77.6769 42.041 93.4595C41.4702 96.8656 43.7874 100.024 46.7692 100.024H95.1845C98.1748 100.024 100.484 96.8755 99.9127 93.4595H99.9213Z" fill="url(#paint0_linear_934_1512)"/>
<path id="Vector_2" d="M70.9809 57.7083C79.0643 57.7083 85.6171 50.0925 85.6171 40.6979C85.6171 31.3033 79.0643 23.6875 70.9809 23.6875C62.8976 23.6875 56.3447 31.3033 56.3447 40.6979C56.3447 50.0925 62.8976 57.7083 70.9809 57.7083Z" fill="url(#paint1_linear_934_1512)"/>
</g>
<g id="Group_2">
<g id="Vector_3" filter="url(#filter0_b_934_1512)">
<path d="M72.6768 91.7863C69.3713 72.0036 54.3858 57.0625 36.393 57.0625C18.4002 57.0625 3.41468 72.0036 0.109179 91.7863C-0.606444 96.0637 2.29012 100.014 6.03863 100.014H66.7388C70.4873 100.014 73.3839 96.0637 72.6682 91.7863H72.6768Z" fill="url(#paint2_linear_934_1512)"/>
</g>
<g id="Vector_4" filter="url(#filter1_b_934_1512)">
<path d="M40.5947 46.4105C50.4539 43.706 56.56 32.2247 54.233 20.7662C51.906 9.30776 42.0272 2.21122 32.168 4.91567C22.3088 7.62011 16.2028 19.1014 18.5298 30.5599C20.8567 42.0184 30.7356 49.1149 40.5947 46.4105Z" fill="url(#paint3_linear_934_1512)"/>
</g>
</g>
</g>
<defs>
<filter id="filter0_b_934_1512" x="-21.6" y="35.4625" width="115.977" height="86.1531" filterUnits="userSpaceOnUse" color-interpolation-filters="sRGB">
<feFlood flood-opacity="0" result="BackgroundImageFix"/>
<feGaussianBlur in="BackgroundImageFix" stdDeviation="10.8"/>
<feComposite in2="SourceAlpha" operator="in" result="effect1_backgroundBlur_934_1512"/>
<feBlend mode="normal" in="SourceGraphic" in2="effect1_backgroundBlur_934_1512" result="shape"/>
</filter>
<filter id="filter1_b_934_1512" x="-3.56484" y="-17.2563" width="79.8924" height="85.8406" filterUnits="userSpaceOnUse" color-interpolation-filters="sRGB">
<feFlood flood-opacity="0" result="BackgroundImageFix"/>
<feGaussianBlur in="BackgroundImageFix" stdDeviation="10.8"/>
<feComposite in2="SourceAlpha" operator="in" result="effect1_backgroundBlur_934_1512"/>
<feBlend mode="normal" in="SourceGraphic" in2="effect1_backgroundBlur_934_1512" result="shape"/>
</filter>
<linearGradient id="paint0_linear_934_1512" x1="70.977" y1="-384.151" x2="70.977" y2="57.8889" gradientUnits="userSpaceOnUse">
<stop stop-color="#28B4FC"/>
<stop offset="1" stop-color="#97F8FF"/>
</linearGradient>
<linearGradient id="paint1_linear_934_1512" x1="70.9809" y1="-423.108" x2="70.9809" y2="15.8655" gradientUnits="userSpaceOnUse">
<stop stop-color="#28B4FC"/>
<stop offset="1" stop-color="#97F8FF"/>
</linearGradient>
<linearGradient id="paint2_linear_934_1512" x1="4.10871" y1="97.5894" x2="37.4646" y2="41.0713" gradientUnits="userSpaceOnUse">
<stop stop-color="white" stop-opacity="0.2"/>
<stop offset="1" stop-color="white" stop-opacity="0.49"/>
</linearGradient>
<linearGradient id="paint3_linear_934_1512" x1="24.283" y1="48.4118" x2="54.0777" y2="6.93574" gradientUnits="userSpaceOnUse">
<stop stop-color="white" stop-opacity="0.2"/>
<stop offset="1" stop-color="white" stop-opacity="0.49"/>
</linearGradient>
</defs>
</svg>
