<svg width="17" height="18" viewBox="0 0 17 18" fill="none" xmlns="http://www.w3.org/2000/svg">
<g id="Group">
<path id="Shape" fill-rule="evenodd" clip-rule="evenodd" d="M16.66 9.3402C16.66 8.73747 16.6059 8.15793 16.5055 7.60156H8.5V10.8895H13.0746C12.8775 11.952 12.2786 12.8523 11.3784 13.455V15.5877H14.1255C15.7327 14.1079 16.66 11.9288 16.66 9.3402Z" fill="#4285F4"/>
<path id="Shape_2" fill-rule="evenodd" clip-rule="evenodd" d="M3.74387 10.7604C3.57387 10.2504 3.47728 9.70563 3.47728 9.1454C3.47728 8.58518 3.57387 8.0404 3.74387 7.5304V5.32812H0.904092C0.32841 6.47563 0 7.77381 0 9.1454C0 10.517 0.32841 11.8152 0.904092 12.9627L3.74387 10.7604Z" fill="#FBBC05"/>
<path id="Shape_3" fill-rule="evenodd" clip-rule="evenodd" d="M8.49997 4.02912C9.74793 4.02912 10.8684 4.45799 11.7493 5.30026L14.1873 2.8623C12.7152 1.49071 10.7911 0.648438 8.49997 0.648438C5.17724 0.648438 2.30269 2.55321 0.904053 5.33117L3.74383 7.53345C4.41224 5.52435 6.28611 4.02912 8.49997 4.02912Z" fill="#EA4335"/>
</g>
</svg>
