<svg width="100" height="100" viewBox="0 0 100 100" fill="none" xmlns="http://www.w3.org/2000/svg">
<g id="tools card icons">
<g id="chat gpt">
<path d="M75.0019 55.0078H25.0056C23.6796 55.0078 22.4079 54.481 21.4703 53.5433C20.5327 52.6057 20.006 51.3339 20.006 50.0078C20.006 48.6817 20.5327 47.41 21.4703 46.4723C22.4079 45.5346 23.6796 45.0078 25.0056 45.0078H75.0019C76.3278 45.0078 77.5995 45.5346 78.5371 46.4723C79.4747 47.41 80.0015 48.6817 80.0015 50.0078C80.0015 51.3339 79.4747 52.6057 78.5371 53.5433C77.5995 54.481 76.3278 55.0078 75.0019 55.0078Z" fill="url(#paint0_linear_934_1582)"/>
<path d="M50.0037 0.00781305C40.5401 0.00641029 31.2704 2.69121 23.2721 7.75012C15.2739 12.809 8.87563 20.0343 4.82106 28.586C0.766497 37.1377 -0.777837 46.6647 0.367578 56.0595C1.51299 65.4542 5.30111 74.331 11.2916 81.6578L1.47233 91.4728C0.773335 92.1721 0.297338 93.0629 0.104515 94.0326C-0.0883085 95.0024 0.0106993 96.0076 0.389021 96.9211C0.767343 97.8346 1.40799 98.6154 2.22998 99.1648C3.05197 99.7142 4.01839 100.008 5.00707 100.008H50.0037C63.2636 100.008 75.9803 94.74 85.3564 85.3631C94.7325 75.9863 100 63.2686 100 50.0078C100 36.747 94.7325 24.0293 85.3564 14.6525C75.9803 5.27565 63.2636 0.00781305 50.0037 0.00781305ZM35.0048 25.0078H65.0026C66.3286 25.0078 67.6003 25.5346 68.5379 26.4723C69.4755 27.41 70.0022 28.6817 70.0022 30.0078C70.0022 31.3339 69.4755 32.6057 68.5379 33.5433C67.6003 34.481 66.3286 35.0078 65.0026 35.0078H35.0048C33.6789 35.0078 32.4072 34.481 31.4696 33.5433C30.532 32.6057 30.0052 31.3339 30.0052 30.0078C30.0052 28.6817 30.532 27.41 31.4696 26.4723C32.4072 25.5346 33.6789 25.0078 35.0048 25.0078ZM65.0026 75.0078H35.0048C33.6789 75.0078 32.4072 74.481 31.4696 73.5433C30.532 72.6057 30.0052 71.3339 30.0052 70.0078C30.0052 68.6817 30.532 67.41 31.4696 66.4723C32.4072 65.5346 33.6789 65.0078 35.0048 65.0078H65.0026C66.3286 65.0078 67.6003 65.5346 68.5379 66.4723C69.4755 67.41 70.0022 68.6817 70.0022 70.0078C70.0022 71.3339 69.4755 72.6057 68.5379 73.5433C67.6003 74.481 66.3286 75.0078 65.0026 75.0078ZM75.0019 55.0078H25.0056C23.6796 55.0078 22.4079 54.481 21.4703 53.5433C20.5327 52.6057 20.006 51.3339 20.006 50.0078C20.006 48.6817 20.5327 47.41 21.4703 46.4723C22.4079 45.5346 23.6796 45.0078 25.0056 45.0078H75.0019C76.3278 45.0078 77.5995 45.5346 78.5371 46.4723C79.4747 47.41 80.0015 48.6817 80.0015 50.0078C80.0015 51.3339 79.4747 52.6057 78.5371 53.5433C77.5995 54.481 76.3278 55.0078 75.0019 55.0078Z" fill="url(#paint1_linear_934_1582)"/>
<path d="M65.0026 75.0078H35.0048C33.6789 75.0078 32.4072 74.481 31.4696 73.5433C30.532 72.6057 30.0052 71.3339 30.0052 70.0078C30.0052 68.6817 30.532 67.41 31.4696 66.4723C32.4072 65.5346 33.6789 65.0078 35.0048 65.0078H65.0026C66.3286 65.0078 67.6003 65.5346 68.5379 66.4723C69.4755 67.41 70.0022 68.6817 70.0022 70.0078C70.0022 71.3339 69.4755 72.6057 68.5379 73.5433C67.6003 74.481 66.3286 75.0078 65.0026 75.0078ZM65.0026 35.0078H35.0048C33.6789 35.0078 32.4072 34.481 31.4696 33.5433C30.532 32.6057 30.0052 31.3339 30.0052 30.0078C30.0052 28.6817 30.532 27.41 31.4696 26.4723C32.4072 25.5346 33.6789 25.0078 35.0048 25.0078H65.0026C66.3286 25.0078 67.6003 25.5346 68.5379 26.4723C69.4755 27.41 70.0022 28.6817 70.0022 30.0078C70.0022 31.3339 69.4755 32.6057 68.5379 33.5433C67.6003 34.481 66.3286 35.0078 65.0026 35.0078Z" fill="url(#paint2_linear_934_1582)"/>
</g>
</g>
<defs>
<linearGradient id="paint0_linear_934_1582" x1="50" y1="0.0078125" x2="50" y2="100.008" gradientUnits="userSpaceOnUse">
<stop offset="0.451042" stop-color="#58D2FE"/>
<stop offset="1" stop-color="#07B4EB"/>
</linearGradient>
<linearGradient id="paint1_linear_934_1582" x1="50" y1="0.0078125" x2="50" y2="100.008" gradientUnits="userSpaceOnUse">
<stop offset="0.384" stop-color="#97F8FF"/>
<stop offset="1" stop-color="#15AAFC"/>
</linearGradient>
<linearGradient id="paint2_linear_934_1582" x1="50.0033" y1="25.0016" x2="50.0033" y2="75.0016" gradientUnits="userSpaceOnUse">
<stop offset="0.451042" stop-color="#3AB0DB"/>
<stop offset="1" stop-color="#07B4EB"/>
</linearGradient>
</defs>
</svg>
